<?xml version="1.0" encoding="UTF-8" standalone="no"?>
<!-- generated at drububu.com  -->

<svg
   xmlns:dc="http://purl.org/dc/elements/1.1/"
   xmlns:cc="http://creativecommons.org/ns#"
   xmlns:rdf="http://www.w3.org/1999/02/22-rdf-syntax-ns#"
   xmlns:svg="http://www.w3.org/2000/svg"
   xmlns="http://www.w3.org/2000/svg"
   xmlns:sodipodi="http://sodipodi.sourceforge.net/DTD/sodipodi-0.dtd"
   xmlns:inkscape="http://www.inkscape.org/namespaces/inkscape"
   version="1.1"
   preserveAspectRatio="xMinYMin meet"
   x="0px"
   y="0px"
   width="16px"
   height="16px"
   viewBox="0 0 16 16"
   id="svg2"
   inkscape:version="0.91 r13725"
   sodipodi:docname="kodiaksunset.svg">
  <metadata
     id="metadata90">
    <rdf:RDF>
      <cc:Work
         rdf:about="">
        <dc:format>image/svg+xml</dc:format>
        <dc:type
           rdf:resource="http://purl.org/dc/dcmitype/StillImage" />
      </cc:Work>
    </rdf:RDF>
  </metadata>
  <defs
     id="defs88" />
  <sodipodi:namedview
     pagecolor="#ffffff"
     bordercolor="#666666"
     borderopacity="1"
     objecttolerance="10"
     gridtolerance="10"
     guidetolerance="10"
     inkscape:pageopacity="0"
     inkscape:pageshadow="2"
     inkscape:window-width="1429"
     inkscape:window-height="1085"
     id="namedview86"
     showgrid="true"
     inkscape:zoom="83.4386"
     inkscape:cx="8.2711864"
     inkscape:cy="8"
     inkscape:window-x="1281"
     inkscape:window-y="269"
     inkscape:window-maximized="0"
     inkscape:current-layer="svg2">
    <inkscape:grid
       type="xygrid"
       id="grid3374" />
  </sodipodi:namedview>
  <path
     style="fill:#000000"
     inkscape:connector-curvature="0"
     id="path3418"
     d="M 16,1 16,15 0,15 0,1 16,1 Z" />
  <path
     d="M 1,0 15,0 15,16 1,16 1,0 Z"
     id="path4"
     inkscape:connector-curvature="0"
     style="fill:#000000" />
  <path
     d="M1 1h14v14h-14v-14z"
     fill="rgb(255,255,255)"
     id="path6" />
  <rect
     style="fill:#4d00c8;fill-opacity:1"
     id="rect3376"
     width="10"
     height="8"
     x="3"
     y="3" />
  <path
     d="M3 4h1v1h-1v-1z"
     fill="rgb(118,0,255)"
     id="path10" />
  <path
     d="M5 4h1v1h-1v-1z"
     fill="rgb(118,0,255)"
     id="path12" />
  <path
     d="M7 4h1v1h-1v-1z"
     fill="rgb(118,0,255)"
     id="path14" />
  <path
     d="M9 4h1v1h-1v-1z"
     fill="rgb(118,0,255)"
     id="path16" />
  <path
     d="M11 4h1v1h-1v-1z"
     fill="rgb(118,0,255)"
     id="path18" />
  <path
     d="M3 5h1v1h-1v-1z"
     fill="rgb(77,0,200)"
     id="path20" />
  <path
     d="M4 5h1v1h-1v-1z"
     fill="rgb(118,0,255)"
     id="path22" />
  <path
     d="M5 5h1v1h-1v-1z"
     fill="rgb(77,0,200)"
     id="path24" />
  <path
     d="M6 5h1v1h-1v-1z"
     fill="rgb(118,0,255)"
     id="path26" />
  <path
     d="M7 5h1v1h-1v-1z"
     fill="rgb(77,0,200)"
     id="path28" />
  <path
     d="M8 5h1v1h-1v-1z"
     fill="rgb(118,0,255)"
     id="path30" />
  <path
     d="M9 5h1v1h-1v-1z"
     fill="rgb(77,0,200)"
     id="path32" />
  <path
     d="M10 5h1v1h-1v-1z"
     fill="rgb(118,0,255)"
     id="path34" />
  <path
     d="M11 5h1v1h-1v-1z"
     fill="rgb(77,0,200)"
     id="path36" />
  <path
     d="M12 5h1v1h-1v-1z"
     fill="rgb(118,0,255)"
     id="path38" />
  <path
     d="M3 6h1v1h-1v-1z"
     fill="rgb(118,0,255)"
     id="path40" />
  <rect
     style="fill:#7600ff;fill-opacity:1"
     id="rect3391"
     width="10"
     height="2"
     x="3"
     y="6" />
  <path
     d="M4 6h1v1h1v1h-2v-2z"
     fill="rgb(255,226,177)"
     id="path42" />
  <path
     d="M6 6h1v1h-1v-1z"
     fill="rgb(166,89,255)"
     id="path46" />
  <path
     d="M10 6h1v1h-1v-1z"
     fill="rgb(166,89,255)"
     id="path54" />
  <path
     d="M12 6h1v1h-1v-1z"
     fill="rgb(166,89,255)"
     id="path58" />
  <path
     d="M3 7h1v1h-1v-1z"
     fill="rgb(166,89,255)"
     id="path60" />
  <path
     id="rect3382"
     style="fill:#606060;fill-opacity:1"
     d="m 8,10.570858 4,0 L 12,12 8,12 Z m 0.5092506,-2.9722452 2.1452904,0 0,3.5595032 -2.1452904,0 z M 11,10 l 2,0 0,2 -1,0 0,-1 -1,0 0,-1 z M 8,6 9,6 9,7 10,7 10,8 9,8 9,9 7,9 7,7 8,7 8,6 Z" />
  <path
     d="M10 7h1v1h1v2h-3v-2h1v-1z"
     fill="rgb(0,94,0)"
     id="path64" />
  <path
     d="M11 7h1v1h-1v-1z"
     fill="rgb(166,89,255)"
     id="path66" />
  <path
     d="M3 8h1v2h-1v-2z"
     fill="rgb(227,173,255)"
     id="path70" />
  <path
     d="M4 8h1v1h-1v-1z"
     fill="rgb(166,89,255)"
     id="path72" />
  <path
     d="M12 8h1v1h-1v-1z"
     fill="rgb(166,89,255)"
     id="path76" />
  <path
     d="M12 9h1v1h-1v-1z"
     fill="rgb(227,173,255)"
     id="path78" />
  <path
     id="rect3387"
     style="fill:#484848;fill-opacity:1"
     d="m 8.8687973,11 2.6007147,0 0,1 -2.6007147,0 z M 11,11 l 1,0 0,1 -1,0 0,-1 z m -6,-3 2,0 0,1 2,0 0,1 1,0 0,2 -7,0 0,-2 1,0 0,-1 1,0 0,-1 z" />
  <path
     d="M10 10h1v2h-1v-2z"
     fill="rgb(83,47,0)"
     id="path80" />
</svg>
