<?xml version="1.0" encoding="UTF-8" standalone="no"?>
<!-- generated at drububu.com  -->

<svg
   xmlns:dc="http://purl.org/dc/elements/1.1/"
   xmlns:cc="http://creativecommons.org/ns#"
   xmlns:rdf="http://www.w3.org/1999/02/22-rdf-syntax-ns#"
   xmlns:svg="http://www.w3.org/2000/svg"
   xmlns="http://www.w3.org/2000/svg"
   xmlns:sodipodi="http://sodipodi.sourceforge.net/DTD/sodipodi-0.dtd"
   xmlns:inkscape="http://www.inkscape.org/namespaces/inkscape"
   version="1.1"
   preserveAspectRatio="xMinYMin meet"
   x="0px"
   y="0px"
   width="16px"
   height="16px"
   viewBox="0 0 16 16"
   id="svg2"
   inkscape:version="0.91 r13725"
   sodipodi:docname="kodiakday.svg">
  <metadata
     id="metadata28">
    <rdf:RDF>
      <cc:Work
         rdf:about="">
        <dc:format>image/svg+xml</dc:format>
        <dc:type
           rdf:resource="http://purl.org/dc/dcmitype/StillImage" />
      </cc:Work>
    </rdf:RDF>
  </metadata>
  <defs
     id="defs26" />
  <sodipodi:namedview
     pagecolor="#ffffff"
     bordercolor="#666666"
     borderopacity="1"
     objecttolerance="10"
     gridtolerance="10"
     guidetolerance="10"
     inkscape:pageopacity="0"
     inkscape:pageshadow="2"
     inkscape:window-width="2216"
     inkscape:window-height="1353"
     id="namedview24"
     showgrid="true"
     inkscape:zoom="59"
     inkscape:cx="8.1694915"
     inkscape:cy="8"
     inkscape:window-x="747"
     inkscape:window-y="337"
     inkscape:window-maximized="0"
     inkscape:current-layer="svg2">
    <inkscape:grid
       type="xygrid"
       id="grid3346" />
  </sodipodi:namedview>
  <g
     id="g3360">
    <path
       d="M 16,1 16,15 0,15 0,1 16,1 Z"
       id="path3358"
       inkscape:connector-curvature="0"
       style="fill:#000000" />
    <path
       style="fill:#000000"
       inkscape:connector-curvature="0"
       id="path4"
       d="M 1,0 15,0 15,16 1,16 1,0 Z" />
  </g>
  <path
     d="M1 1h14v14h-14v-14z"
     fill="rgb(255,255,255)"
     id="path6" />
  <rect
     style="fill:#00beff;fill-opacity:1"
     id="rect3357"
     width="10"
     height="8"
     x="3"
     y="3" />
  <path
     d="M5 4h1v1h1v1h-1v1h-1v-1h-1v-1h1v-1z"
     fill="rgb(255,226,177)"
     id="path10" />
  <path
     id="rect3350"
     style="fill:#0061ff;fill-opacity:1"
     d="m 8,10 4,0 0,2 -4,0 z m 0.4915257,-2.5762711 2.2881353,0 0,3.9491521 -2.2881353,0 z M 11,10 l 2,0 0,2 -1,0 0,-1 -1,0 0,-1 z M 8,6 9,6 9,7 10,7 10,8 9,8 9,9 7,9 7,7 8,7 8,6 Z" />
  <path
     d="M10 7h1v1h1v2h-3v-2h1v-1z"
     fill="rgb(170,255,0)"
     id="path14" />
  <path
     id="rect3359"
     style="fill:#3300ff;fill-opacity:1"
     d="m 9,11 2.627119,0 0,1 L 9,12 Z m 2,0 1,0 0,1 -1,0 0,-1 z m -6,-3 2,0 0,1 2,0 0,1 1,0 0,2 -7,0 0,-2 1,0 0,-1 1,0 0,-1 z" />
  <path
     d="M10 10h1v2h-1v-2z"
     fill="rgb(177,130,0)"
     id="path18" />
</svg>
