<?xml version="1.0" encoding="UTF-8" standalone="no"?>
<!-- generated at drububu.com  -->

<svg
   xmlns:dc="http://purl.org/dc/elements/1.1/"
   xmlns:cc="http://creativecommons.org/ns#"
   xmlns:rdf="http://www.w3.org/1999/02/22-rdf-syntax-ns#"
   xmlns:svg="http://www.w3.org/2000/svg"
   xmlns="http://www.w3.org/2000/svg"
   xmlns:sodipodi="http://sodipodi.sourceforge.net/DTD/sodipodi-0.dtd"
   xmlns:inkscape="http://www.inkscape.org/namespaces/inkscape"
   version="1.1"
   preserveAspectRatio="xMinYMin meet"
   x="0px"
   y="0px"
   width="16px"
   height="16px"
   viewBox="0 0 16 16"
   id="svg2"
   inkscape:version="0.91 r13725"
   sodipodi:docname="kodiakmorning.svg">
  <metadata
     id="metadata110">
    <rdf:RDF>
      <cc:Work
         rdf:about="">
        <dc:format>image/svg+xml</dc:format>
        <dc:type
           rdf:resource="http://purl.org/dc/dcmitype/StillImage" />
      </cc:Work>
    </rdf:RDF>
  </metadata>
  <defs
     id="defs108" />
  <sodipodi:namedview
     pagecolor="#ffffff"
     bordercolor="#666666"
     borderopacity="1"
     objecttolerance="10"
     gridtolerance="10"
     guidetolerance="10"
     inkscape:pageopacity="0"
     inkscape:pageshadow="2"
     inkscape:window-width="1935"
     inkscape:window-height="1209"
     id="namedview106"
     showgrid="false"
     inkscape:zoom="59"
     inkscape:cx="8.1355932"
     inkscape:cy="8"
     inkscape:window-x="836"
     inkscape:window-y="361"
     inkscape:window-maximized="0"
     inkscape:current-layer="svg2" />
  <path
     style="fill:#000000"
     inkscape:connector-curvature="0"
     id="path3438"
     d="M 16,1 16,15 0,15 0,1 16,1 Z" />
  <path
     d="M 1,0 15,0 15,16 1,16 1,0 Z"
     id="path4"
     inkscape:connector-curvature="0"
     style="fill:#000000" />
  <path
     d="M1 1h14v14h-14v-14z"
     fill="rgb(255,255,255)"
     id="path6" />
  <path
     d="M3 3h1v1h-1v-1z"
     fill="rgb(255,226,177)"
     id="path8" />
  <path
     d="M4 3h1v1h-1v-1z"
     fill="rgb(255,158,57)"
     id="path10" />
  <path
     d="M5 3h1v1h-1v-1z"
     fill="rgb(255,226,177)"
     id="path12" />
  <path
     d="M6 3h1v1h-1v-1z"
     fill="rgb(255,158,57)"
     id="path14" />
  <path
     d="M7 3h1v1h-1v-1z"
     fill="rgb(255,226,177)"
     id="path16" />
  <path
     d="M8 3h1v1h-1v-1z"
     fill="rgb(255,158,57)"
     id="path18" />
  <path
     d="M9 3h1v1h-1v-1z"
     fill="rgb(255,226,177)"
     id="path20" />
  <path
     d="M10 3h1v1h-1v-1z"
     fill="rgb(255,158,57)"
     id="path22" />
  <path
     d="M11 3h1v1h-1v-1z"
     fill="rgb(255,226,177)"
     id="path24" />
  <path
     d="M12 3h1v1h-1v-1z"
     fill="rgb(255,158,57)"
     id="path26" />
  <path
     d="M3 4h1v2h-1v-2z"
     fill="rgb(255,158,57)"
     id="path28" />
  <path
     d="M4 4h1v1h-1v-1z"
     fill="rgb(255,226,177)"
     id="path30" />
  <path
     d="M5 4h1v2h-1v-2z"
     fill="rgb(255,158,57)"
     id="path32" />
  <path
     d="M6 4h1v1h-1v-1z"
     fill="rgb(255,226,177)"
     id="path34" />
  <path
     d="M7 4h1v2h-1v-2z"
     fill="rgb(255,158,57)"
     id="path36" />
  <path
     d="M8 4h1v1h-1v-1z"
     fill="rgb(255,226,177)"
     id="path38" />
  <path
     d="M9 4h1v2h-1v-2z"
     fill="rgb(255,158,57)"
     id="path40" />
  <path
     d="M10 4h1v1h-1v-1z"
     fill="rgb(255,226,177)"
     id="path42" />
  <path
     d="M11 4h1v1h1v1h-2v-2z"
     fill="rgb(255,158,57)"
     id="path44" />
  <path
     d="M12 4h1v1h-1v-1z"
     fill="rgb(255,226,177)"
     id="path46" />
  <path
     d="M4 5h1v1h-1v-1z"
     fill="rgb(241,82,0)"
     id="path48" />
  <path
     d="M6 5h1v1h-1v-1z"
     fill="rgb(241,82,0)"
     id="path50" />
  <path
     d="M8 5h1v1h-1v-1z"
     fill="rgb(241,82,0)"
     id="path52" />
  <path
     d="M10 5h1v1h-1v-1z"
     fill="rgb(241,82,0)"
     id="path54" />
  <path
     d="M3 6h1v1h-1v-1z"
     fill="rgb(241,82,0)"
     id="path56" />
  <path
     d="M4 6h1v1h-1v-1z"
     fill="rgb(149,0,0)"
     id="path58" />
  <path
     d="M5 6h1v1h-1v-1z"
     fill="rgb(241,82,0)"
     id="path60" />
  <path
     d="M6 6h1v1h-1v-1z"
     fill="rgb(149,0,0)"
     id="path62" />
  <path
     d="M7 6h1v1h-1v-1z"
     fill="rgb(241,82,0)"
     id="path64" />
  <path
     d="M8 6h1v1h1v1h-1v1h-2v-2h1v-1z"
     fill="rgb(96,96,96)"
     id="path66" />
  <path
     d="M9 6h1v1h-1v-1z"
     fill="rgb(241,82,0)"
     id="path68" />
  <path
     d="M10 6h1v1h-1v-1z"
     fill="rgb(149,0,0)"
     id="path70" />
  <path
     d="M11 6h1v1h-1v-1z"
     fill="rgb(241,82,0)"
     id="path72" />
  <path
     d="M12 6h1v1h-1v-1z"
     fill="rgb(149,0,0)"
     id="path74" />
  <path
     d="M3 7h1v1h-1v-1z"
     fill="rgb(149,0,0)"
     id="path76" />
  <path
     d="M4 7h1v1h-1v-1z"
     fill="rgb(241,82,0)"
     id="path78" />
  <path
     d="M5 7h2v1h-2v-1z"
     fill="rgb(255,187,0)"
     id="path80" />
  <path
     d="M10 7h1v1h1v2h-3v-2h1v-1z"
     fill="rgb(0,128,0)"
     id="path82" />
  <path
     d="M11 7h1v1h-1v-1z"
     fill="rgb(149,0,0)"
     id="path84" />
  <path
     d="M12 7h1v1h-1v-1z"
     fill="rgb(241,82,0)"
     id="path86" />
  <path
     d="M3 8h1v1h-1v-1z"
     fill="rgb(241,82,0)"
     id="path88" />
  <path
     d="M4 8h1v1h-1v-1z"
     fill="rgb(255,187,0)"
     id="path90" />
  <path
     d="M5 8h2v1h2v1h1v2h-7v-2h1v-1h1v-1z"
     fill="rgb(72,72,72)"
     id="path92" />
  <path
     d="M12 8h1v1h-1v-1z"
     fill="rgb(149,0,0)"
     id="path94" />
  <path
     d="M3 9h1v1h-1v-1z"
     fill="rgb(149,0,0)"
     id="path96" />
  <path
     d="M12 9h1v1h-1v-1z"
     fill="rgb(241,82,0)"
     id="path98" />
  <path
     d="M10 10h1v2h-1v-2z"
     fill="rgb(177,130,0)"
     id="path100" />
  <path
     d="M11 10h2v2h-1v-1h-1v-1z"
     fill="rgb(96,96,96)"
     id="path102" />
  <path
     d="M11 11h1v1h-1v-1z"
     fill="rgb(72,72,72)"
     id="path104" />
</svg>
