<?xml version="1.0" encoding="UTF-8" standalone="no"?>
<!-- generated at drububu.com  -->

<svg
   xmlns:dc="http://purl.org/dc/elements/1.1/"
   xmlns:cc="http://creativecommons.org/ns#"
   xmlns:rdf="http://www.w3.org/1999/02/22-rdf-syntax-ns#"
   xmlns:svg="http://www.w3.org/2000/svg"
   xmlns="http://www.w3.org/2000/svg"
   xmlns:sodipodi="http://sodipodi.sourceforge.net/DTD/sodipodi-0.dtd"
   xmlns:inkscape="http://www.inkscape.org/namespaces/inkscape"
   version="1.1"
   preserveAspectRatio="xMinYMin meet"
   x="0px"
   y="0px"
   width="16px"
   height="16px"
   viewBox="0 0 16 16"
   id="svg2"
   inkscape:version="0.91 r13725"
   sodipodi:docname="kodiaknight.svg">
  <metadata
     id="metadata28">
    <rdf:RDF>
      <cc:Work
         rdf:about="">
        <dc:format>image/svg+xml</dc:format>
        <dc:type
           rdf:resource="http://purl.org/dc/dcmitype/StillImage" />
        <dc:title></dc:title>
      </cc:Work>
    </rdf:RDF>
  </metadata>
  <defs
     id="defs26" />
  <sodipodi:namedview
     pagecolor="#ffffff"
     bordercolor="#666666"
     borderopacity="1"
     objecttolerance="10"
     gridtolerance="10"
     guidetolerance="10"
     inkscape:pageopacity="0"
     inkscape:pageshadow="2"
     inkscape:window-width="2034"
     inkscape:window-height="1673"
     id="namedview24"
     showgrid="true"
     inkscape:zoom="83.4386"
     inkscape:cx="4.3712233"
     inkscape:cy="8"
     inkscape:window-x="1165"
     inkscape:window-y="192"
     inkscape:window-maximized="0"
     inkscape:current-layer="svg2">
    <inkscape:grid
       type="xygrid"
       id="grid3407" />
  </sodipodi:namedview>
  <path
     id="path4"
     style="fill:#000000"
     d="M 1,0 15,0 15,16 1,16 1,0 Z M 16,1 16,15 0,15 0,1 16,1 Z" />
  <path
     d="M1 1h14v14h-14v-14z"
     fill="rgb(255,255,255)"
     id="path6" />
  <rect
     style="fill:#4d00c8;fill-opacity:1;fill-rule:evenodd;stroke:none;stroke-width:1px;stroke-linecap:butt;stroke-linejoin:miter;stroke-opacity:1"
     id="rect3409"
     width="10"
     height="8.8559322"
     x="3"
     y="3" />
  <path
     d="M4 4h1v1h1v1h-2v-2z"
     id="path10"
     fill="rgb(255,226,177)" />
  <path
     id="rect8176"
     style="fill:#484848;fill-opacity:1;stroke:none"
     d="m 10,10 2,0 0,2 -2,0 z m -2,-2 3,0 0,3 -3,0 z m 3,2 2,0 0,2 -1,0 0,-1 -1,0 0,-1 z M 8,6 9,6 9,7 10,7 10,8 9,8 9,9 7,9 7,7 8,7 8,6 Z" />
  <path
     d="M10 7h1v1h1v2h-3v-2h1v-1z"
     id="path14"
     fill="rgb(0,94,0)" />
  <path
     id="rect8181"
     style="fill:#191919;fill-opacity:1;stroke:none"
     d="m 9,11 2.529436,0 0,1 L 9,12 Z m 2,0 1,0 0,1 -1,0 0,-1 z m -6,-3 2,0 0,1 2,0 0,1 1,0 0,2 -7,0 0,-2 1,0 0,-1 1,0 0,-1 z" />
  <path
     d="M10 10h1v2h-1v-2z"
     fill="rgb(83,47,0)"
     id="path18" />
</svg>
